<?xml version="1.0" encoding="UTF-8"?>
<svg version="1.1" xmlns="http://www.w3.org/2000/svg" width="457" height="217">
<path d="M0 0 C6.2695097 -0.23863186 11.73226734 0.56734216 17.8125 2.0625 C18.72539795 2.28510498 19.6382959 2.50770996 20.57885742 2.73706055 C47.58429766 9.57644887 72.32814063 22.05045465 92 42 C91.67 42.66 91.34 43.32 91 44 C90.30519531 43.74605469 89.61039062 43.49210937 88.89453125 43.23046875 C59.40550075 33.25129113 27.49103449 36.75467509 -3 39 C-3 35.7 -3 32.4 -3 29 C-10.44831404 28.94986897 -17.89652591 28.91394127 -25.3449707 28.89013672 C-27.86907669 28.88019361 -30.39317152 28.86663441 -32.91723633 28.84912109 C-64.62530654 28.63491994 -95.2797953 31.11908609 -124 46 C-122.78441406 46.06058594 -121.56882812 46.12117188 -120.31640625 46.18359375 C-118.73175772 46.26798332 -117.14712298 46.3526321 -115.5625 46.4375 C-114.76005859 46.47681641 -113.95761719 46.51613281 -113.13085938 46.55664062 C-107.11328125 46.88671875 -107.11328125 46.88671875 -106 48 C-105.92773498 49.85287502 -105.9161878 51.70833878 -105.9375 53.5625 C-105.94652344 54.57441406 -105.95554687 55.58632813 -105.96484375 56.62890625 C-105.97644531 57.41136719 -105.98804688 58.19382813 -106 59 C-107.875 58.75 -107.875 58.75 -110 58 C-110.67197342 56.66933327 -111.33844675 55.33587781 -112 54 C-116.8817991 51.42487583 -122.56385803 50.57831298 -128 50 C-128 54.62 -128 59.24 -128 64 C-126.02 63.67 -124.04 63.34 -122 63 C-120.30117552 60.50240018 -120.30117552 60.50240018 -119 58 C-118.01 58 -117.02 58 -116 58 C-116 63.61 -116 69.22 -116 75 C-117.32 75 -118.64 75 -120 75 C-120.309375 73.7934375 -120.309375 73.7934375 -120.625 72.5625 C-121.07875 71.716875 -121.5325 70.87125 -122 70 C-123.98 69.67 -125.96 69.34 -128 69 C-128 73.62 -128 78.24 -128 83 C-124.9371875 82.87625 -124.9371875 82.87625 -121.8125 82.75 C-120.66394531 82.70359375 -119.51539063 82.6571875 -118.33203125 82.609375 C-114.4658833 81.90231863 -112.775166 80.73494621 -110 78 C-108.66701026 75.38181544 -108.66701026 75.38181544 -108 73 C-106.68 73 -105.36 73 -104 73 C-103.9727585 74.41655793 -103.95349533 75.83327045 -103.9375 77.25 C-103.92589844 78.03890625 -103.91429687 78.8278125 -103.90234375 79.640625 C-104 82 -104 82 -105 86 C-118.86 86 -132.72 86 -147 86 C-147 85.01 -147 84.02 -147 83 C-145.35 83 -143.7 83 -142 83 C-141.67 73.43 -141.34 63.86 -141 54 C-144.96 55.98 -144.96 55.98 -149 58 C-149.33 58.99 -149.66 59.98 -150 61 C-151.299375 61.1546875 -151.299375 61.1546875 -152.625 61.3125 C-156.16941605 62.03451068 -158.81082345 63.33293044 -162 65 C-162.66 65 -163.32 65 -164 65 C-163.67 70.94 -163.34 76.88 -163 83 C-161.02 83 -159.04 83 -157 83 C-157 83.99 -157 84.98 -157 86 C-165.91 86 -174.82 86 -184 86 C-184 85.01 -184 84.02 -184 83 C-182.02 83 -180.04 83 -178 83 C-177.67 80.03 -177.34 77.06 -177 74 C-177.55429688 74.37253906 -178.10859375 74.74507813 -178.6796875 75.12890625 C-179.40414062 75.60199219 -180.12859375 76.07507813 -180.875 76.5625 C-181.59429687 77.03816406 -182.31359375 77.51382813 -183.0546875 78.00390625 C-183.69664062 78.33261719 -184.33859375 78.66132812 -185 79 C-185.66 78.67 -186.32 78.34 -187 78 C-185.8758824 76.70756532 -184.75067408 75.41607925 -183.625 74.125 C-182.68527344 73.04605469 -182.68527344 73.04605469 -181.7265625 71.9453125 C-180.52573166 70.5923402 -179.2791655 69.2791655 -178 68 C-177.85482256 65.0906442 -177.81369204 62.280054 -177.875 59.375 C-177.88402344 58.57320312 -177.89304687 57.77140625 -177.90234375 56.9453125 C-177.92593777 54.96341477 -177.96180935 52.98167019 -178 51 C-182.31826612 52.03156517 -182.31826612 52.03156517 -185.4609375 54.9453125 C-185.76257813 55.66460937 -186.06421875 56.38390625 -186.375 57.125 C-186.69210938 57.84945312 -187.00921875 58.57390625 -187.3359375 59.3203125 C-187.66464844 60.15175781 -187.66464844 60.15175781 -188 61 C-188.99 61 -189.98 61 -191 61 C-191.02685938 58.85423363 -191.04633088 56.70837355 -191.0625 54.5625 C-191.07410156 53.36753906 -191.08570313 52.17257813 -191.09765625 50.94140625 C-191 48 -191 48 -190 47 C-187.38712502 47.07275004 -184.795599 47.20226859 -182.1875 47.359375 C-160.81095337 49.34565611 -160.81095337 49.34565611 -142.125 41.0625 C-140.27861236 39.30674582 -138.49116368 37.51713533 -136.73486328 35.67138672 C-133.85611557 32.89796892 -130.55811984 31.02367262 -127.0625 29.125 C-126.4025 28.76623779 -125.7425 28.40747559 -125.0625 28.0378418 C-88.80553051 8.97731264 -44.31933884 2.95780872 -4 9 C-3.01 9.33 -2.02 9.66 -1 10 C-0.67 6.7 -0.34 3.4 0 0 Z M-164 50 C-164 52.31 -164 54.62 -164 57 C-162.02 55.68 -160.04 54.36 -158 53 C-158.33 52.34 -158.66 51.68 -159 51 C-161.52733235 50.34444881 -161.52733235 50.34444881 -164 50 Z " fill="#07409B" transform="translate(293,7)"/>
<path d="M0 0 C1.32 0 2.64 0 4 0 C5.67643038 3.26591822 7.33943344 6.53849107 9 9.8125 C9.47695313 10.74126953 9.95390625 11.67003906 10.4453125 12.62695312 C11.12207031 13.9659668 11.12207031 13.9659668 11.8125 15.33203125 C12.23144531 16.15421143 12.65039062 16.9763916 13.08203125 17.82348633 C14 20 14 20 14 23 C21.425 18.545 21.425 18.545 29 14 C29.33 14.66 29.66 15.32 30 16 C26.13635705 20.48717034 22.25209792 24.87675353 18 29 C19.14083176 32.03292954 19.14083176 32.03292954 21 35 C23.58414426 35.96906827 23.58414426 35.96906827 26 36 C26 36.99 26 37.98 26 39 C25.0884314 38.93546631 25.0884314 38.93546631 24.15844727 38.86962891 C13.84118657 38.30017287 4.3678329 37.85474788 -3.98681641 44.62207031 C-6.74348414 47.11610563 -9.44439523 49.65928374 -12.109375 52.25097656 C-16.82994962 56.61799575 -22.44305118 59.81639608 -28 63 C-28.57943359 63.33692871 -29.15886719 63.67385742 -29.75585938 64.02099609 C-65.46191512 84.39525309 -112.66784163 90.46610944 -153 84 C-153.66 83.67 -154.32 83.34 -155 83 C-155.33 86.3 -155.66 89.6 -156 93 C-178.9980891 93.85574285 -202.21947844 82.75792701 -222 72 C-222.9590625 71.48308594 -223.918125 70.96617187 -224.90625 70.43359375 C-233.67712238 65.2871554 -240.76593987 58.06367415 -248 51 C-247.67 50.34 -247.34 49.68 -247 49 C-246.08347656 49.38091797 -246.08347656 49.38091797 -245.1484375 49.76953125 C-216.30617382 60.61584731 -183.06015234 56.21359524 -153 54 C-153 57.3 -153 60.6 -153 64 C-145.55168596 64.05013103 -138.10347409 64.08605873 -130.6550293 64.10986328 C-128.13092331 64.11980639 -125.60682848 64.13336559 -123.08276367 64.15087891 C-84.03909937 64.41463503 -52.10979101 57.50719198 -17 40 C-19.31 39.67 -21.62 39.34 -24 39 C-24 38.01 -24 37.02 -24 36 C-22.02 36 -20.04 36 -18 36 C-17.76796875 35.37351563 -17.5359375 34.74703125 -17.296875 34.1015625 C-15.48057569 29.75776235 -13.36370997 25.58055667 -11.25 21.375 C-10.80479004 20.48651367 -10.35958008 19.59802734 -9.90087891 18.68261719 C-6.72925258 12.38077858 -3.46724011 6.1451898 0 0 Z M-4 15 C-4.69965443 16.26418246 -5.38434763 17.53665402 -6.0625 18.8125 C-6.44535156 19.52019531 -6.82820312 20.22789062 -7.22265625 20.95703125 C-8.30263511 23.14697801 -8.30263511 23.14697801 -7 26 C-4.03 26 -1.06 26 2 26 C1.52269162 24.5410574 1.04308958 23.08286504 0.5625 21.625 C0.29566406 20.81289062 0.02882813 20.00078125 -0.24609375 19.1640625 C-0.95179729 16.98968201 -0.95179729 16.98968201 -2 15 C-2.66 15 -3.32 15 -4 15 Z M-11.91796875 29.765625 C-13.29056587 32.18624927 -13.29056587 32.18624927 -13 36 C-8.10160332 36.34884724 -5.34104063 35.46792622 -1.125 33 C-0.15820312 32.443125 0.80859375 31.88625 1.8046875 31.3125 C2.52914062 30.879375 3.25359375 30.44625 4 30 C3.67 29.34 3.34 28.68 3 28 C0.89695523 27.8919977 -1.20766909 27.81441013 -3.3125 27.75 C-4.48425781 27.70359375 -5.65601563 27.6571875 -6.86328125 27.609375 C-10.0435599 27.69688342 -10.0435599 27.69688342 -11.91796875 29.765625 Z " fill="#08409B" transform="translate(318,110)"/>
<path d="M0 0 C4.25006599 -0.04990593 8.49997099 -0.08595579 12.75024414 -0.10986328 C14.19233171 -0.11984313 15.63439946 -0.13343184 17.07641602 -0.15087891 C36.75672642 -0.38281324 36.75672642 -0.38281324 43.0625 4.25 C45 7 45 7 45.625 10.0625 C45 13 45 13 42.8125 15.25 C40.24402306 16.84816343 37.85531211 18.02103585 35 19 C35.94875 19.5775 36.8975 20.155 37.875 20.75 C41.5146603 23.37055542 42.61954098 24.67248601 43.33203125 29.03125 C43.59410551 31.01602574 43.80079322 33.00793215 44 35 C45.98 35 47.96 35 50 35 C50 36.32 50 37.64 50 39 C47.60293877 39.10854617 45.21084162 39.18753157 42.8125 39.25 C42.13896484 39.28351563 41.46542969 39.31703125 40.77148438 39.3515625 C37.29595761 39.41937766 35.16351809 39.09286761 32.125 37.3671875 C29.60207315 34.55672119 28.95976354 32.55115507 28.1875 28.875 C27.95417969 27.82054687 27.72085938 26.76609375 27.48046875 25.6796875 C27 23 27 23 27 21 C24.36 20.67 21.72 20.34 19 20 C19 25.28 19 30.56 19 36 C20.98 36 22.96 36 25 36 C25 36.99 25 37.98 25 39 C16.75 39 8.5 39 0 39 C0 38.01 0 37.02 0 36 C1.98 36 3.96 36 6 36 C6 25.11 6 14.22 6 3 C4.02 3 2.04 3 0 3 C0 2.01 0 1.02 0 0 Z M19 3 C19 7.62 19 12.24 19 17 C20.8871875 17.0309375 20.8871875 17.0309375 22.8125 17.0625 C23.52019531 17.07410156 24.22789062 17.08570313 24.95703125 17.09765625 C27.20305461 17.08263217 27.20305461 17.08263217 30 16 C30.19573608 14.56359829 30.38127816 13.12580496 30.5625 11.6875 C30.71912109 10.48673828 30.71912109 10.48673828 30.87890625 9.26171875 C31.14755178 6.83182884 31.14755178 6.83182884 30 4 C27.24921116 3.08307039 25.64051087 2.89113917 22.8125 2.9375 C21.554375 2.958125 20.29625 2.97875 19 3 Z " fill="#E5032D" transform="translate(144,110)"/>
<path d="M0 0 C4.25006599 -0.04990593 8.49997099 -0.08595579 12.75024414 -0.10986328 C14.19233171 -0.11984313 15.63439946 -0.13343184 17.07641602 -0.15087891 C36.75672642 -0.38281324 36.75672642 -0.38281324 43.0625 4.25 C45 7 45 7 45.625 10.0625 C45 13 45 13 42.8125 15.25 C40.24402306 16.84816343 37.85531211 18.02103585 35 19 C35.94875 19.5775 36.8975 20.155 37.875 20.75 C41.5146603 23.37055542 42.61954098 24.67248601 43.33203125 29.03125 C43.59410551 31.01602574 43.80079322 33.00793215 44 35 C45.98 35 47.96 35 50 35 C50 36.32 50 37.64 50 39 C47.60293877 39.10854617 45.21084162 39.18753157 42.8125 39.25 C42.13896484 39.28351563 41.46542969 39.31703125 40.77148438 39.3515625 C37.29595761 39.41937766 35.16351809 39.09286761 32.125 37.3671875 C29.60207315 34.55672119 28.95976354 32.55115507 28.1875 28.875 C27.95417969 27.82054687 27.72085937 26.76609375 27.48046875 25.6796875 C27 23 27 23 27 21 C24.36 20.67 21.72 20.34 19 20 C19 25.28 19 30.56 19 36 C20.98 36 22.96 36 25 36 C25 36.99 25 37.98 25 39 C16.75 39 8.5 39 0 39 C0 38.01 0 37.02 0 36 C1.98 36 3.96 36 6 36 C6 25.11 6 14.22 6 3 C4.02 3 2.04 3 0 3 C0 2.01 0 1.02 0 0 Z M19 3 C19 7.62 19 12.24 19 17 C20.8871875 17.0309375 20.8871875 17.0309375 22.8125 17.0625 C23.52019531 17.07410156 24.22789062 17.08570313 24.95703125 17.09765625 C27.20305461 17.08263217 27.20305461 17.08263217 30 16 C30.19573608 14.56359829 30.38127816 13.12580496 30.5625 11.6875 C30.71912109 10.48673828 30.71912109 10.48673828 30.87890625 9.26171875 C31.14755178 6.83182884 31.14755178 6.83182884 30 4 C27.24921116 3.08307039 25.64051087 2.89113917 22.8125 2.9375 C21.554375 2.958125 20.29625 2.97875 19 3 Z " fill="#E5032D" transform="translate(243,110)"/>
<path d="M0 0 C4.28668688 -0.04975174 8.57321697 -0.0858847 12.86010742 -0.10986328 C14.31586641 -0.1198685 15.77160557 -0.13347696 17.22729492 -0.15087891 C19.3299654 -0.17537044 21.43236824 -0.18653794 23.53515625 -0.1953125 C25.42826538 -0.21102295 25.42826538 -0.21102295 27.35961914 -0.22705078 C31.8107439 0.05056615 36.14993033 0.64035828 39.8125 3.33203125 C41.75425523 5.75283794 42.97186135 7.42315761 43.125 10.5625 C41.65310233 13.75161163 39.5936812 15.66568692 37 18 C36.505 18.495 36.505 18.495 36 19 C36.94875 19.45375 37.8975 19.9075 38.875 20.375 C42.07892831 22.04104272 43.58364097 22.84700578 44.8125 26.25 C45.06907866 30.01315365 44.04530058 31.86387245 42 35 C36.68305656 38.95362461 31.83735883 39.14510908 25.390625 39.09765625 C24.66381531 39.0962413 23.93700562 39.09482635 23.18817139 39.09336853 C20.87540506 39.08778792 18.56273688 39.07523904 16.25 39.0625 C14.67838682 39.05748249 13.10677211 39.05292002 11.53515625 39.04882812 C7.69006657 39.03782485 3.8450499 39.02057361 0 39 C0 38.01 0 37.02 0 36 C1.98 36 3.96 36 6 36 C6 25.11 6 14.22 6 3 C4.02 3 2.04 3 0 3 C0 2.01 0 1.02 0 0 Z M19 3 C19 7.62 19 12.24 19 17 C23.0100934 17.17864631 23.0100934 17.17864631 27 17 C29.19666303 15.22033317 29.19666303 15.22033317 29.23046875 12.90625 C29.21628906 12.1121875 29.20210937 11.318125 29.1875 10.5 C29.18105469 9.7059375 29.17460938 8.911875 29.16796875 8.09375 C29.12675836 5.94163609 29.12675836 5.94163609 28 4 C25.87423218 3.53348793 25.87423218 3.53348793 23.4375 3.375 C21.973125 3.25125 20.50875 3.1275 19 3 Z M19 20 C19 25.28 19 30.56 19 36 C26.24147145 36.68865756 26.24147145 36.68865756 28.96875 34.8125 C31.05474412 31.14620731 30.72322986 27.05281639 30 23 C28 20.66666667 28 20.66666667 25 20 C23.02 20 21.04 20 19 20 Z " fill="#E5032D" transform="translate(97,110)"/>
<path d="M0 0 C13.86 0 27.72 0 42 0 C42 3.96 42 7.92 42 12 C40.68 11.67 39.36 11.34 38 11 C37.319375 9.7934375 37.319375 9.7934375 36.625 8.5625 C35.20004078 5.82041906 35.20004078 5.82041906 32.4375 4.75 C27.95867759 3.77280238 23.57003838 3.37054365 19 3 C19 7.95 19 12.9 19 18 C21.31 17.34 23.62 16.68 26 16 C27.51792644 13.50358872 27.51792644 13.50358872 28 11 C29.32 11 30.64 11 32 11 C32 16.61 32 22.22 32 28 C30.68 28 29.36 28 28 28 C27.814375 27.21625 27.62875 26.4325 27.4375 25.625 C26.963125 24.75875 26.48875 23.8925 26 23 C23.69 22.34 21.38 21.68 19 21 C19 25.95 19 30.9 19 36 C29.4408221 35.99192081 29.4408221 35.99192081 38 31 C39.19027984 28.40084462 39.19027984 28.40084462 40 26 C40.99 25.67 41.98 25.34 43 25 C44 26 44 26 44.1328125 27.92578125 C44.13023437 28.71339844 44.12765625 29.50101563 44.125 30.3125 C44.12886719 31.48232422 44.12886719 31.48232422 44.1328125 32.67578125 C44 35 44 35 43 39 C28.81 39 14.62 39 0 39 C0 38.01 0 37.02 0 36 C1.98 36 3.96 36 6 36 C6 25.11 6 14.22 6 3 C4.02 3 2.04 3 0 3 C0 2.01 0 1.02 0 0 Z " fill="#E6032D" transform="translate(196,110)"/>
<path d="M0 0 C0.82628906 0.0407666 1.65257812 0.0815332 2.50390625 0.12353516 C3.39851563 0.16736328 4.293125 0.21119141 5.21484375 0.25634766 C6.62636719 0.33369141 6.62636719 0.33369141 8.06640625 0.41259766 C9.47792969 0.47833984 9.47792969 0.47833984 10.91796875 0.54541016 C17.93839048 0.90958189 17.93839048 0.90958189 19.06640625 2.03759766 C19.13867127 3.89047267 19.15021845 5.74593643 19.12890625 7.60009766 C19.11988281 8.61201172 19.11085937 9.62392578 19.1015625 10.66650391 C19.08996094 11.44896484 19.07835937 12.23142578 19.06640625 13.03759766 C17.19140625 12.78759766 17.19140625 12.78759766 15.06640625 12.03759766 C14.39443283 10.70693093 13.7279595 9.37347546 13.06640625 8.03759766 C8.18460715 5.46247348 2.50254822 4.61591063 -2.93359375 4.03759766 C-2.93359375 8.65759766 -2.93359375 13.27759766 -2.93359375 18.03759766 C-0.95359375 17.70759766 1.02640625 17.37759766 3.06640625 17.03759766 C4.76523073 14.53999784 4.76523073 14.53999784 6.06640625 12.03759766 C7.05640625 12.03759766 8.04640625 12.03759766 9.06640625 12.03759766 C9.06640625 17.64759766 9.06640625 23.25759766 9.06640625 29.03759766 C7.74640625 29.03759766 6.42640625 29.03759766 5.06640625 29.03759766 C4.86015625 28.23322266 4.65390625 27.42884766 4.44140625 26.60009766 C3.98765625 25.75447266 3.53390625 24.90884766 3.06640625 24.03759766 C1.08640625 23.70759766 -0.89359375 23.37759766 -2.93359375 23.03759766 C-2.93359375 27.65759766 -2.93359375 32.27759766 -2.93359375 37.03759766 C-0.89171875 36.95509766 1.15015625 36.87259766 3.25390625 36.78759766 C4.40246094 36.74119141 5.55101562 36.69478516 6.734375 36.64697266 C10.60052295 35.93991629 12.29124025 34.77254386 15.06640625 32.03759766 C16.39939599 29.41941309 16.39939599 29.41941309 17.06640625 27.03759766 C18.38640625 27.03759766 19.70640625 27.03759766 21.06640625 27.03759766 C21.09364775 28.45415559 21.11291092 29.8708681 21.12890625 31.28759766 C21.14050781 32.07650391 21.15210938 32.86541016 21.1640625 33.67822266 C21.06640625 36.03759766 21.06640625 36.03759766 20.06640625 40.03759766 C6.20640625 40.03759766 -7.65359375 40.03759766 -21.93359375 40.03759766 C-21.93359375 39.04759766 -21.93359375 38.05759766 -21.93359375 37.03759766 C-20.28359375 37.03759766 -18.63359375 37.03759766 -16.93359375 37.03759766 C-16.60359375 26.14759766 -16.27359375 15.25759766 -15.93359375 4.03759766 C-17.91359375 4.03759766 -19.89359375 4.03759766 -21.93359375 4.03759766 C-21.93359375 3.37759766 -21.93359375 2.71759766 -21.93359375 2.03759766 C-21.36326416 2.0125415 -20.79293457 1.98748535 -20.20532227 1.96166992 C-17.63533218 1.84603217 -15.06573848 1.72316141 -12.49609375 1.60009766 C-11.59826172 1.56078125 -10.70042969 1.52146484 -9.77539062 1.48095703 C-8.92138672 1.4390625 -8.06738281 1.39716797 -7.1875 1.35400391 C-6.39674072 1.31734619 -5.60598145 1.28068848 -4.79125977 1.24291992 C-2.49896436 0.98955937 -2.33660973 0.04543408 0 0 Z " fill="#E3032E" transform="translate(167.93359375,52.96240234375)"/>
<path d="M0 0 C0.79789444 0.00202423 1.59578888 0.00404846 2.41786194 0.00613403 C3.23295731 0.00517731 4.04805267 0.00422058 4.8878479 0.00323486 C6.61538266 0.002553 8.34291996 0.0044077 10.07044983 0.00857544 C12.71951547 0.01391679 15.36841103 0.00863422 18.01747131 0.00222778 C19.6926019 0.0028887 21.36773238 0.00417014 23.04286194 0.00613403 C23.83873215 0.0041098 24.63460236 0.00208557 25.45458984 0 C31.06685731 0.02399109 31.06685731 0.02399109 33.29676819 1.13894653 C33.71083069 4.08035278 33.71083069 4.08035278 33.92176819 7.70144653 C33.99653381 8.8989856 34.07129944 10.09652466 34.14833069 11.33035278 C34.19731506 12.25718872 34.24629944 13.18402466 34.29676819 14.13894653 C33.37379944 14.27171997 32.45083069 14.40449341 31.49989319 14.54129028 C28.0061934 15.19316354 25.43013651 16.50104946 22.29676819 18.13894653 C21.63676819 18.13894653 20.97676819 18.13894653 20.29676819 18.13894653 C20.62676819 24.07894653 20.95676819 30.01894653 21.29676819 36.13894653 C23.27676819 36.13894653 25.25676819 36.13894653 27.29676819 36.13894653 C27.29676819 37.12894653 27.29676819 38.11894653 27.29676819 39.13894653 C18.38676819 39.13894653 9.47676819 39.13894653 0.29676819 39.13894653 C0.29676819 38.14894653 0.29676819 37.15894653 0.29676819 36.13894653 C2.27676819 36.13894653 4.25676819 36.13894653 6.29676819 36.13894653 C6.79176819 31.68394653 6.79176819 31.68394653 7.29676819 27.13894653 C6.46532288 27.69775513 6.46532288 27.69775513 5.61708069 28.26785278 C4.89262756 28.74093872 4.16817444 29.21402466 3.42176819 29.70144653 C2.70247131 30.1771106 1.98317444 30.65277466 1.24208069 31.14285278 C0.60012756 31.47156372 -0.04182556 31.80027466 -0.70323181 32.13894653 C-1.36323181 31.80894653 -2.02323181 31.47894653 -2.70323181 31.13894653 C-1.57911421 29.84651186 -0.45390589 28.55502579 0.67176819 27.26394653 C1.29825256 26.54464966 1.92473694 25.82535278 2.57020569 25.08425903 C3.77103653 23.73128673 5.01760269 22.41811203 6.29676819 21.13894653 C6.44194562 18.22959073 6.48307615 15.41900053 6.42176819 12.51394653 C6.41274475 11.71214966 6.40372131 10.91035278 6.39442444 10.08425903 C6.37083042 8.10236131 6.33495883 6.12061672 6.29676819 4.13894653 C1.97850207 5.1705117 1.97850207 5.1705117 -1.16416931 8.08425903 C-1.46580994 8.80355591 -1.76745056 9.52285278 -2.07823181 10.26394653 C-2.55389587 11.35062622 -2.55389587 11.35062622 -3.03916931 12.45925903 C-3.25830994 13.01355591 -3.47745056 13.56785278 -3.70323181 14.13894653 C-4.69323181 14.13894653 -5.68323181 14.13894653 -6.70323181 14.13894653 C-6.7300912 11.99318017 -6.74956269 9.84732008 -6.76573181 7.70144653 C-6.77733337 6.5064856 -6.78893494 5.31152466 -6.80088806 4.08035278 C-6.63169159 -1.01584508 -4.55807447 0.01956832 0 0 Z M20.29676819 3.13894653 C20.29676819 5.44894653 20.29676819 7.75894653 20.29676819 10.13894653 C22.27676819 8.81894653 24.25676819 7.49894653 26.29676819 6.13894653 C25.96676819 5.47894653 25.63676819 4.81894653 25.29676819 4.13894653 C22.76943584 3.48339534 22.76943584 3.48339534 20.29676819 3.13894653 Z " fill="#E4032D" transform="translate(108.70323181152344,53.861053466796875)"/>
<path d="M0 0 C7.59 0 15.18 0 23 0 C23.33 0.99 23.66 1.98 24 3 C22.68 3.33 21.36 3.66 20 4 C21.98 6.64 23.96 9.28 26 12 C29.63094642 9.35039045 31.89851796 6.98175544 34 3 C32.02 3 30.04 3 28 3 C28.33 2.01 28.66 1.02 29 0 C34.28 0 39.56 0 45 0 C45.495 1.485 45.495 1.485 46 3 C45.030625 3.144375 44.06125 3.28875 43.0625 3.4375 C37.55404418 4.98710667 33.24491248 9.42904156 30 14 C30.61015592 18.85634305 33.897983 22.32910118 36.75 26.125 C37.2759375 26.85332031 37.801875 27.58164063 38.34375 28.33203125 C42.18083329 33.48143335 42.18083329 33.48143335 48 36 C48 36.99 48 37.98 48 39 C40.08 39 32.16 39 24 39 C24 38.01 24 37.02 24 36 C25.98 35.505 25.98 35.505 28 35 C25.69 32.03 23.38 29.06 21 26 C15.46990667 30.50017478 15.46990667 30.50017478 11 36 C12.65 36 14.3 36 16 36 C16 36.99 16 37.98 16 39 C10.72 39 5.44 39 0 39 C0 38.01 0 37.02 0 36 C1.0415625 35.78085938 2.083125 35.56171875 3.15625 35.3359375 C7.36231733 34.12966113 9.58663809 31.89814455 12.5 28.625 C13.3765625 27.66851562 14.253125 26.71203125 15.15625 25.7265625 C17.24982117 23.27416181 17.24982117 23.27416181 16.76074219 21.05688477 C15.4045925 17.39014501 13.03805951 14.45186102 10.75 11.3125 C10.27175781 10.62349609 9.79351562 9.93449219 9.30078125 9.22460938 C6.45004437 5.20270767 6.45004437 5.20270767 2.140625 3.04296875 C1.43421875 3.02878906 0.7278125 3.01460937 0 3 C0 2.01 0 1.02 0 0 Z " fill="#E4032D" transform="translate(193,54)"/>
<path d="M0 0 C0.84477905 0.00202423 1.68955811 0.00404846 2.55993652 0.00613403 C3.42179565 0.00517731 4.28365479 0.00422058 5.17163086 0.00323486 C6.99751864 0.00255304 8.82340884 0.00440749 10.64929199 0.00857544 C13.45419731 0.01392367 16.25894248 0.00863054 19.06384277 0.00222778 C20.83337438 0.00288856 22.60290588 0.00416973 24.37243652 0.00613403 C25.21721558 0.0041098 26.06199463 0.00208557 26.93237305 0 C32.85123621 0.02399622 32.85123621 0.02399622 33.96618652 1.13894653 C34.03877598 3.32534106 34.04992435 5.51395042 34.02868652 7.70144653 C34.01966309 8.8989856 34.01063965 10.09652466 34.00134277 11.33035278 C33.98974121 12.25718872 33.97813965 13.18402466 33.96618652 14.13894653 C32.97618652 14.13894653 31.98618652 14.13894653 30.96618652 14.13894653 C30.7470459 13.58464966 30.52790527 13.03035278 30.30212402 12.45925903 C29.98501465 11.73480591 29.66790527 11.01035278 29.34118652 10.26394653 C29.0395459 9.54464966 28.73790527 8.82535278 28.42712402 8.08425903 C26.71785103 5.42429937 26.71785103 5.42429937 20.96618652 4.13894653 C20.96618652 14.69894653 20.96618652 25.25894653 20.96618652 36.13894653 C22.94618652 36.13894653 24.92618652 36.13894653 26.96618652 36.13894653 C26.96618652 37.12894653 26.96618652 38.11894653 26.96618652 39.13894653 C18.05618652 39.13894653 9.14618652 39.13894653 -0.03381348 39.13894653 C0.29618652 38.14894653 0.62618652 37.15894653 0.96618652 36.13894653 C2.94618652 36.13894653 4.92618652 36.13894653 6.96618652 36.13894653 C6.63618652 25.57894653 6.30618652 15.01894653 5.96618652 4.13894653 C0.0535478 6.50400202 -1.45223661 8.57862714 -4.03381348 14.13894653 C-5.02381348 14.13894653 -6.01381348 14.13894653 -7.03381348 14.13894653 C-7.06067286 11.99318017 -7.08014435 9.84732008 -7.09631348 7.70144653 C-7.10791504 6.5064856 -7.1195166 5.31152466 -7.13146973 4.08035278 C-6.95819441 -1.13869981 -4.63560019 0.01879362 0 0 Z " fill="#E3032D" transform="translate(250.0338134765625,53.861053466796875)"/>
<path d="M0 0 C1.32 0 2.64 0 4 0 C5.67643038 3.26591822 7.33943344 6.53849107 9 9.8125 C9.47695313 10.74126953 9.95390625 11.67003906 10.4453125 12.62695312 C11.12207031 13.9659668 11.12207031 13.9659668 11.8125 15.33203125 C12.23144531 16.15421143 12.65039062 16.9763916 13.08203125 17.82348633 C14 20 14 20 14 23 C21.425 18.545 21.425 18.545 29 14 C29.495 14.99 29.495 14.99 30 16 C26.13635705 20.48717034 22.25209792 24.87675353 18 29 C19.14083176 32.03292954 19.14083176 32.03292954 21 35 C23.58414426 35.96906827 23.58414426 35.96906827 26 36 C26 36.99 26 37.98 26 39 C18.08 39 10.16 39 2 39 C2 38.34 2 37.68 2 37 C4.475 36.505 4.475 36.505 7 36 C6.01 33.69 5.02 31.38 4 29 C-0.62 29 -5.24 29 -10 29 C-11.485 32.465 -11.485 32.465 -13 36 C-11.35 36 -9.7 36 -8 36 C-8 36.99 -8 37.98 -8 39 C-13.28 39 -18.56 39 -24 39 C-24 38.01 -24 37.02 -24 36 C-22.02 36 -20.04 36 -18 36 C-17.76796875 35.37351563 -17.5359375 34.74703125 -17.296875 34.1015625 C-15.48057569 29.75776235 -13.36370997 25.58055667 -11.25 21.375 C-10.80479004 20.48651367 -10.35958008 19.59802734 -9.90087891 18.68261719 C-6.72925258 12.38077858 -3.46724011 6.1451898 0 0 Z M-4 15 C-4.69965443 16.26418246 -5.38434763 17.53665402 -6.0625 18.8125 C-6.44535156 19.52019531 -6.82820313 20.22789062 -7.22265625 20.95703125 C-8.30263511 23.14697801 -8.30263511 23.14697801 -7 26 C-4.03 26 -1.06 26 2 26 C1.52269162 24.5410574 1.04308958 23.08286504 0.5625 21.625 C0.29566406 20.81289062 0.02882813 20.00078125 -0.24609375 19.1640625 C-0.95179729 16.98968201 -0.95179729 16.98968201 -2 15 C-2.66 15 -3.32 15 -4 15 Z " fill="#E4032E" transform="translate(318,110)"/>
<path d="M0 0 C1.32 0 2.64 0 4 0 C5.78083714 3.53666253 7.55886413 7.07472307 9.33447266 10.61401367 C10.23066671 12.39899324 11.12898207 14.18290726 12.02734375 15.96679688 C14.90874388 21.7134095 17.7184473 27.42755143 20.09375 33.40429688 C20.95735738 35.31702863 20.95735738 35.31702863 23.75 36.0625 C24.4925 36.041875 25.235 36.02125 26 36 C26 36.99 26 37.98 26 39 C18.08 39 10.16 39 2 39 C2 38.01 2 37.02 2 36 C3.65 36 5.3 36 7 36 C6.01 33.69 5.02 31.38 4 29 C-0.62 29 -5.24 29 -10 29 C-11.485 32.465 -11.485 32.465 -13 36 C-11.02 36 -9.04 36 -7 36 C-7 36.99 -7 37.98 -7 39 C-12.61 39 -18.22 39 -24 39 C-24 38.01 -24 37.02 -24 36 C-23.11054687 36.02320313 -22.22109375 36.04640625 -21.3046875 36.0703125 C-17.5208041 34.84479944 -17.29159629 34.40093104 -15.5078125 31.0546875 C-14.69191225 29.33824029 -13.89882661 27.61082159 -13.125 25.875 C-12.26745605 24.05382418 -11.40805894 22.23351989 -10.546875 20.4140625 C-10.12341797 19.50430664 -9.69996094 18.59455078 -9.26367188 17.65722656 C-7.42337833 13.78749028 -5.41651997 10.01646044 -3.375 6.25 C-3.03227051 5.61304199 -2.68954102 4.97608398 -2.33642578 4.31982422 C-1.56019829 2.87848978 -0.78054807 1.43899923 0 0 Z M-4 15 C-4.69965443 16.26418246 -5.38434763 17.53665402 -6.0625 18.8125 C-6.44535156 19.52019531 -6.82820313 20.22789062 -7.22265625 20.95703125 C-8.30263511 23.14697801 -8.30263511 23.14697801 -7 26 C-3.7 26 -0.4 26 3 26 C1.35 22.37 -0.3 18.74 -2 15 C-2.66 15 -3.32 15 -4 15 Z " fill="#E5032D" transform="translate(69,110)"/>
<path d="M0 0 C0.95648438 -0.00257812 1.91296875 -0.00515625 2.8984375 -0.0078125 C5.625 0.125 5.625 0.125 7.6640625 0.6953125 C10.12706071 1.37251929 10.12706071 1.37251929 14.625 0.125 C14.955 3.755 15.285 7.385 15.625 11.125 C14.305 11.455 12.985 11.785 11.625 12.125 C11.34527344 11.63128906 11.06554687 11.13757813 10.77734375 10.62890625 C8.49668634 6.98425437 7.44727924 5.36420851 3.1875 4.125 C-0.14609244 4.125 -3.12321281 4.41119306 -6.375 5.125 C-6.375 6.775 -6.375 8.425 -6.375 10.125 C-5.21742188 10.42792969 -4.05984375 10.73085937 -2.8671875 11.04296875 C-1.32790193 11.46533369 0.21114843 11.88855652 1.75 12.3125 C2.51054687 12.50908203 3.27109375 12.70566406 4.0546875 12.90820312 C9.3615085 14.39502797 12.67017957 16.26258192 16.625 20.125 C18.16097454 23.19694908 17.8515038 25.72744293 17.625 29.125 C15.79657234 34.30554504 13.3717292 36.45496482 8.625 39.125 C3.88518818 40.70493727 -0.67930992 40.26400305 -5.5625 39.5625 C-8.79091475 39.19202618 -10.39884741 39.17263117 -13.375 40.125 C-14.375 39.125 -14.375 39.125 -14.47265625 36.62109375 C-14.46105469 35.61175781 -14.44945312 34.60242188 -14.4375 33.5625 C-14.42847656 32.55058594 -14.41945313 31.53867188 -14.41015625 30.49609375 C-14.39855469 29.71363281 -14.38695312 28.93117187 -14.375 28.125 C-13.055 27.795 -11.735 27.465 -10.375 27.125 C-7.375 31.875 -7.375 31.875 -7.375 34.125 C-2.24313609 36.36196632 2.24705038 36.4587315 7.625 35.125 C9.86345015 33.29584359 9.86345015 33.29584359 9.9375 30.625 C9.834375 29.8 9.73125 28.975 9.625 28.125 C6.57151763 26.08934509 5.92661826 25.92917697 2.5 25.8125 C-3.89312705 25.2170617 -9.09754669 22.53642115 -13.5 17.875 C-14.80632275 13.76941422 -14.74108322 10.22324965 -13.375 6.125 C-9.64154619 1.52330111 -5.74199936 -0.0153941 0 0 Z " fill="#E5032D" transform="translate(379.375,109.875)"/>
<path d="M0 0 C8.25 0 16.5 0 25 0 C25.33 0.99 25.66 1.98 26 3 C23.36 3 20.72 3 18 3 C18.33 13.56 18.66 24.12 19 35 C29.13745898 36.08014896 29.13745898 36.08014896 33 32.8125 C35.02598241 30.05684333 35.02598241 30.05684333 36.625 27.1875 C37.07875 26.465625 37.5325 25.74375 38 25 C38.99 25 39.98 25 41 25 C41.02705729 26.77074917 41.04642195 28.54161711 41.0625 30.3125 C41.07410156 31.29863281 41.08570313 32.28476563 41.09765625 33.30078125 C41 36 41 36 40 39 C26.47 39 12.94 39 -1 39 C-0.67 38.01 -0.34 37.02 0 36 C1.98 36 3.96 36 6 36 C6 25.11 6 14.22 6 3 C3.69 3 1.38 3 -1 3 C-0.67 2.01 -0.34 1.02 0 0 Z " fill="#E4032D" transform="translate(314,54)"/>
<path d="M0 0 C0.495 5.445 0.495 5.445 1 11 C-0.32 11 -1.64 11 -3 11 C-5.125 8.125 -5.125 8.125 -7 5 C-8.78657757 2.78629949 -8.78657757 2.78629949 -11.1640625 2.8046875 C-11.97617187 2.82789062 -12.78828125 2.85109375 -13.625 2.875 C-14.85089844 2.90207031 -14.85089844 2.90207031 -16.1015625 2.9296875 C-17.04128906 2.96449219 -17.04128906 2.96449219 -18 3 C-20.56072976 7.86842299 -20.26156119 12.58560479 -20.1875 17.9375 C-20.1865332 19.25911133 -20.1865332 19.25911133 -20.18554688 20.60742188 C-20.15473246 25.17822613 -19.92584526 29.5040954 -19 34 C-15.15265504 34.84641589 -12.6050538 35.1898208 -8.8125 34 C-5.16220406 31.404234 -3.9603998 28.9961996 -2 25 C-1.01 25 -0.02 25 1 25 C1 29.29 1 33.58 1 38 C-0.03125 37.79375 -1.0625 37.5875 -2.125 37.375 C-6.22747768 36.97798603 -8.18685225 37.64951017 -12 39 C-17.52151643 39.51125152 -22.22744376 38.83925068 -27 36 C-31.31807814 32.00640172 -34.74809717 28.35708958 -35.203125 22.29296875 C-35.36569579 11.52265372 -35.36569579 11.52265372 -32 7 C-22.31785864 -2.68214136 -13.03015206 -1.73735361 0 0 Z " fill="#E5032D" transform="translate(42,111)"/>
<path d="M0 0 C7.92 0 15.84 0 24 0 C24.33 0.99 24.66 1.98 25 3 C22.69 3 20.38 3 18 3 C18 13.89 18 24.78 18 36 C19.98 36 21.96 36 24 36 C24.33 36.99 24.66 37.98 25 39 C16.42 39 7.84 39 -1 39 C-0.67 38.01 -0.34 37.02 0 36 C2.475 35.505 2.475 35.505 5 35 C5 24.44 5 13.88 5 3 C3.02 3 1.04 3 -1 3 C-0.67 2.01 -0.34 1.02 0 0 Z " fill="#E2032E" transform="translate(287,54)"/>
<path d="M0 0 C4.62 0 9.24 0 14 0 C14 11.88 14 23.76 14 36 C14.99 36 15.98 36 17 36 C17 36.99 17 37.98 17 39 C11.39 39 5.78 39 0 39 C0 38.01 0 37.02 0 36 C0.99 36 1.98 36 3 36 C3 25.11 3 14.22 3 3 C2.01 3 1.02 3 0 3 C0 2.01 0 1.02 0 0 Z " fill="#E6032D" transform="translate(428,110)"/>
<path d="M0 0 C6 0 12 0 18 0 C19.7634375 -0.061875 19.7634375 -0.061875 21.5625 -0.125 C25 0 25 0 27 2 C27.25 4.5 27.25 4.5 27 7 C26.34 7.66 25.68 8.32 25 9 C19.54545455 8.54545455 19.54545455 8.54545455 17 6 C15.9458482 9.16245541 15.68724328 11.86948218 15.4375 15.1875 C15.35371094 16.27417969 15.26992188 17.36085937 15.18359375 18.48046875 C15.12300781 19.31191406 15.06242187 20.14335937 15 21 C16.65 21 18.3 21 20 21 C20 21.99 20 22.98 20 24 C13.4 24 6.8 24 0 24 C0.495 22.515 0.495 22.515 1 21 C1.99 21 2.98 21 4 21 C4 15.06 4 9.12 4 3 C2.68 3 1.36 3 0 3 C0 2.01 0 1.02 0 0 Z " fill="#E5032D" transform="translate(399,125)"/>
<path d="M0 0 C0.33 0 0.66 0 1 0 C1 11.22 1 22.44 1 34 C3.97 34 6.94 34 10 34 C10 34.33 10 34.66 10 35 C4.39 35 -1.22 35 -7 35 C-7 34.01 -7 33.02 -7 32 C-5.02 32 -3.04 32 -1 32 C-0.505 27.545 -0.505 27.545 0 23 C-0.83144531 23.55880859 -0.83144531 23.55880859 -1.6796875 24.12890625 C-2.40414062 24.60199219 -3.12859375 25.07507813 -3.875 25.5625 C-4.59429687 26.03816406 -5.31359375 26.51382813 -6.0546875 27.00390625 C-6.69664063 27.33261719 -7.33859375 27.66132812 -8 28 C-8.66 27.67 -9.32 27.34 -10 27 C-8.8758824 25.70756532 -7.75067408 24.41607925 -6.625 23.125 C-5.99851562 22.40570313 -5.37203125 21.68640625 -4.7265625 20.9453125 C-3.52573166 19.5923402 -2.2791655 18.2791655 -1 17 C-0.69324768 14.10032243 -0.48826629 11.28216822 -0.375 8.375 C-0.33632812 7.57320313 -0.29765625 6.77140625 -0.2578125 5.9453125 C-0.16346069 3.96392444 -0.08063785 1.98199355 0 0 Z " fill="#DB0531" transform="translate(116,58)"/>
<path d="M0 0 C2.5625 2.25 2.5625 2.25 5 5 C5 7 5 7 4 9 C1.49609375 10.484375 1.49609375 10.484375 -1.5625 11.75 C-3.08037109 12.39195313 -3.08037109 12.39195313 -4.62890625 13.046875 C-5.41136719 13.36140625 -6.19382813 13.6759375 -7 14 C-7.61658031 8.89119171 -7.61658031 8.89119171 -7 6 C-4.96073101 3.55696597 -2.63153386 1.7722575 0 0 Z " fill="#133E96" transform="translate(135,59)"/>
<path d="M0 0 C0.33 0.66 0.66 1.32 1 2 C-6.51871307 10.92711753 -6.51871307 10.92711753 -11 14 C-11.66 14 -12.32 14 -13 14 C-13.33 12.35 -13.66 10.7 -14 9 C-9.38 6.03 -4.76 3.06 0 0 Z " fill="#08419C" transform="translate(347,124)"/>
<path d="M0 0 C0.33 0 0.66 0 1 0 C1.5 2.6875 1.5 2.6875 1 6 C-1.40205632 8.17172215 -3.99618429 9.78761655 -7 11 C-7.66 10.67 -8.32 10.34 -9 10 C-7.8758824 8.70756532 -6.75067408 7.41607925 -5.625 6.125 C-4.99851562 5.40570313 -4.37203125 4.68640625 -3.7265625 3.9453125 C-2.52573166 2.5923402 -1.2791655 1.2791655 0 0 Z " fill="#06419E" transform="translate(115,75)"/>
<path d="M0 0 C5.28 0 10.56 0 16 0 C16.33 0.99 16.66 1.98 17 3 C14.36 3.66 11.72 4.32 9 5 C9 4.34 9 3.68 9 3 C9.66 3 10.32 3 11 3 C11 2.34 11 1.68 11 1 C7.37 1 3.74 1 0 1 C0 0.67 0 0.34 0 0 Z " fill="#D90733" transform="translate(222,54)"/>
<path d="M0 0 C3.81684226 1.55500981 6.19195732 4.03595495 9 7 C8.67 7.66 8.34 8.32 8 9 C3.15544041 7.41450777 3.15544041 7.41450777 1 6 C0.0625 2.8125 0.0625 2.8125 0 0 Z " fill="#133E96" transform="translate(376,42)"/>
<path d="M0 0 C2 1 2 1 2 1 Z " fill="#D30A37" transform="translate(246,144)"/>
<path d="" fill="#D30A37" transform="translate(0,0)"/>
<path d="" fill="#D30A37" transform="translate(0,0)"/>
<path d="" fill="#D30A37" transform="translate(0,0)"/>
<path d="" fill="#D30A37" transform="translate(0,0)"/>
<path d="" fill="#D30A37" transform="translate(0,0)"/>
<path d="" fill="#D30A37" transform="translate(0,0)"/>
<path d="" fill="#D30A37" transform="translate(0,0)"/>
<path d="" fill="#D30A37" transform="translate(0,0)"/>
<path d="" fill="#D30A37" transform="translate(0,0)"/>
<path d="" fill="#D30A37" transform="translate(0,0)"/>
<path d="" fill="#D30A37" transform="translate(0,0)"/>
<path d="" fill="#D30A37" transform="translate(0,0)"/>
<path d="" fill="#D30A37" transform="translate(0,0)"/>
<path d="" fill="#D30A37" transform="translate(0,0)"/>
<path d="" fill="#D30A37" transform="translate(0,0)"/>
<path d="" fill="#D30A37" transform="translate(0,0)"/>
<path d="" fill="#D30A37" transform="translate(0,0)"/>
<path d="" fill="#D30A37" transform="translate(0,0)"/>
<path d="" fill="#D30A37" transform="translate(0,0)"/>
<path d="" fill="#D30A37" transform="translate(0,0)"/>
<path d="" fill="#D30A37" transform="translate(0,0)"/>
<path d="" fill="#D30A37" transform="translate(0,0)"/>
<path d="" fill="#D30A37" transform="translate(0,0)"/>
<path d="" fill="#D30A37" transform="translate(0,0)"/>
<path d="" fill="#D30A37" transform="translate(0,0)"/>
<path d="" fill="#D30A37" transform="translate(0,0)"/>
<path d="" fill="#D30A37" transform="translate(0,0)"/>
<path d="" fill="#D30A37" transform="translate(0,0)"/>
<path d="" fill="#D30A37" transform="translate(0,0)"/>
<path d="" fill="#D30A37" transform="translate(0,0)"/>
<path d="" fill="#D30A37" transform="translate(0,0)"/>
<path d="" fill="#D30A37" transform="translate(0,0)"/>
<path d="" fill="#D30A37" transform="translate(0,0)"/>
<path d="" fill="#D30A37" transform="translate(0,0)"/>
<path d="" fill="#D30A37" transform="translate(0,0)"/>
<path d="" fill="#D30A37" transform="translate(0,0)"/>
<path d="" fill="#D30A37" transform="translate(0,0)"/>
<path d="" fill="#D30A37" transform="translate(0,0)"/>
<path d="" fill="#D30A37" transform="translate(0,0)"/>
<path d="" fill="#D30A37" transform="translate(0,0)"/>
<path d="" fill="#D30A37" transform="translate(0,0)"/>
<path d="" fill="#D30A37" transform="translate(0,0)"/>
<path d="" fill="#D30A37" transform="translate(0,0)"/>
<path d="" fill="#D30A37" transform="translate(0,0)"/>
<path d="" fill="#D30A37" transform="translate(0,0)"/>
<path d="" fill="#D30A37" transform="translate(0,0)"/>
<path d="" fill="#D30A37" transform="translate(0,0)"/>
<path d="" fill="#D30A37" transform="translate(0,0)"/>
<path d="" fill="#D30A37" transform="translate(0,0)"/>
<path d="" fill="#D30A37" transform="translate(0,0)"/>
<path d="" fill="#D30A37" transform="translate(0,0)"/>
<path d="" fill="#D30A37" transform="translate(0,0)"/>
<path d="" fill="#D30A37" transform="translate(0,0)"/>
<path d="" fill="#D30A37" transform="translate(0,0)"/>
<path d="" fill="#D30A37" transform="translate(0,0)"/>
<path d="" fill="#D30A37" transform="translate(0,0)"/>
<path d="" fill="#D30A37" transform="translate(0,0)"/>
<path d="" fill="#D30A37" transform="translate(0,0)"/>
<path d="" fill="#D30A37" transform="translate(0,0)"/>
<path d="" fill="#D30A37" transform="translate(0,0)"/>
<path d="" fill="#D30A37" transform="translate(0,0)"/>
<path d="" fill="#D30A37" transform="translate(0,0)"/>
<path d="" fill="#D30A37" transform="translate(0,0)"/>
<path d="" fill="#D30A37" transform="translate(0,0)"/>
<path d="" fill="#D30A37" transform="translate(0,0)"/>
<path d="" fill="#D30A37" transform="translate(0,0)"/>
<path d="" fill="#D30A37" transform="translate(0,0)"/>
<path d="" fill="#D30A37" transform="translate(0,0)"/>
<path d="" fill="#D30A37" transform="translate(0,0)"/>
<path d="" fill="#D30A37" transform="translate(0,0)"/>
<path d="" fill="#D30A37" transform="translate(0,0)"/>
<path d="" fill="#D30A37" transform="translate(0,0)"/>
<path d="" fill="#D30A37" transform="translate(0,0)"/>
<path d="" fill="#D30A37" transform="translate(0,0)"/>
<path d="" fill="#D30A37" transform="translate(0,0)"/>
<path d="" fill="#D30A37" transform="translate(0,0)"/>
<path d="" fill="#D30A37" transform="translate(0,0)"/>
<path d="" fill="#D30A37" transform="translate(0,0)"/>
<path d="" fill="#D30A37" transform="translate(0,0)"/>
<path d="" fill="#D30A37" transform="translate(0,0)"/>
<path d="" fill="#D30A37" transform="translate(0,0)"/>
<path d="" fill="#D30A37" transform="translate(0,0)"/>
<path d="" fill="#D30A37" transform="translate(0,0)"/>
<path d="" fill="#D30A37" transform="translate(0,0)"/>
<path d="" fill="#D30A37" transform="translate(0,0)"/>
<path d="" fill="#D30A37" transform="translate(0,0)"/>
<path d="" fill="#D30A37" transform="translate(0,0)"/>
<path d="" fill="#D30A37" transform="translate(0,0)"/>
<path d="" fill="#D30A37" transform="translate(0,0)"/>
<path d="" fill="#D30A37" transform="translate(0,0)"/>
<path d="" fill="#D30A37" transform="translate(0,0)"/>
<path d="" fill="#D30A37" transform="translate(0,0)"/>
<path d="" fill="#D30A37" transform="translate(0,0)"/>
<path d="" fill="#D30A37" transform="translate(0,0)"/>
<path d="" fill="#D30A37" transform="translate(0,0)"/>
<path d="" fill="#D30A37" transform="translate(0,0)"/>
<path d="" fill="#D30A37" transform="translate(0,0)"/>
<path d="" fill="#D30A37" transform="translate(0,0)"/>
<path d="" fill="#D30A37" transform="translate(0,0)"/>
<path d="" fill="#D30A37" transform="translate(0,0)"/>
<path d="" fill="#D30A37" transform="translate(0,0)"/>
<path d="" fill="#D30A37" transform="translate(0,0)"/>
<path d="" fill="#D30A37" transform="translate(0,0)"/>
<path d="" fill="#D30A37" transform="translate(0,0)"/>
<path d="" fill="#D30A37" transform="translate(0,0)"/>
<path d="" fill="#D30A37" transform="translate(0,0)"/>
<path d="" fill="#D30A37" transform="translate(0,0)"/>
<path d="" fill="#D30A37" transform="translate(0,0)"/>
<path d="" fill="#D30A37" transform="translate(0,0)"/>
<path d="" fill="#D30A37" transform="translate(0,0)"/>
<path d="" fill="#D30A37" transform="translate(0,0)"/>
<path d="" fill="#D30A37" transform="translate(0,0)"/>
<path d="" fill="#D30A37" transform="translate(0,0)"/>
<path d="" fill="#D30A37" transform="translate(0,0)"/>
<path d="" fill="#D30A37" transform="translate(0,0)"/>
<path d="" fill="#D30A37" transform="translate(0,0)"/>
<path d="" fill="#D30A37" transform="translate(0,0)"/>
<path d="" fill="#D30A37" transform="translate(0,0)"/>
<path d="" fill="#D30A37" transform="translate(0,0)"/>
<path d="" fill="#D30A37" transform="translate(0,0)"/>
<path d="" fill="#D30A37" transform="translate(0,0)"/>
<path d="" fill="#D30A37" transform="translate(0,0)"/>
<path d="" fill="#D30A37" transform="translate(0,0)"/>
<path d="" fill="#D30A37" transform="translate(0,0)"/>
<path d="" fill="#D30A37" transform="translate(0,0)"/>
<path d="" fill="#D30A37" transform="translate(0,0)"/>
<path d="" fill="#D30A37" transform="translate(0,0)"/>
<path d="" fill="#D30A37" transform="translate(0,0)"/>
<path d="" fill="#D30A37" transform="translate(0,0)"/>
<path d="" fill="#D30A37" transform="translate(0,0)"/>
<path d="" fill="#D30A37" transform="translate(0,0)"/>
<path d="" fill="#D30A37" transform="translate(0,0)"/>
<path d="" fill="#D30A37" transform="translate(0,0)"/>
<path d="" fill="#D30A37" transform="translate(0,0)"/>
<path d="" fill="#D30A37" transform="translate(0,0)"/>
<path d="" fill="#D30A37" transform="translate(0,0)"/>
<path d="" fill="#D30A37" transform="translate(0,0)"/>
<path d="" fill="#D30A37" transform="translate(0,0)"/>
<path d="" fill="#D30A37" transform="translate(0,0)"/>
<path d="" fill="#D30A37" transform="translate(0,0)"/>
<path d="" fill="#D30A37" transform="translate(0,0)"/>
<path d="" fill="#D30A37" transform="translate(0,0)"/>
<path d="" fill="#D30A37" transform="translate(0,0)"/>
<path d="" fill="#D30A37" transform="translate(0,0)"/>
<path d="" fill="#D30A37" transform="translate(0,0)"/>
<path d="" fill="#D30A37" transform="translate(0,0)"/>
<path d="" fill="#D30A37" transform="translate(0,0)"/>
<path d="" fill="#D30A37" transform="translate(0,0)"/>
<path d="" fill="#D30A37" transform="translate(0,0)"/>
<path d="" fill="#D30A37" transform="translate(0,0)"/>
<path d="" fill="#D30A37" transform="translate(0,0)"/>
<path d="" fill="#D30A37" transform="translate(0,0)"/>
<path d="" fill="#D30A37" transform="translate(0,0)"/>
<path d="" fill="#D30A37" transform="translate(0,0)"/>
<path d="" fill="#D30A37" transform="translate(0,0)"/>
<path d="" fill="#D30A37" transform="translate(0,0)"/>
<path d="" fill="#D30A37" transform="translate(0,0)"/>
<path d="" fill="#D30A37" transform="translate(0,0)"/>
<path d="" fill="#D30A37" transform="translate(0,0)"/>
<path d="" fill="#D30A37" transform="translate(0,0)"/>
<path d="" fill="#D30A37" transform="translate(0,0)"/>
<path d="" fill="#D30A37" transform="translate(0,0)"/>
<path d="" fill="#D30A37" transform="translate(0,0)"/>
<path d="" fill="#D30A37" transform="translate(0,0)"/>
<path d="" fill="#D30A37" transform="translate(0,0)"/>
<path d="" fill="#D30A37" transform="translate(0,0)"/>
<path d="" fill="#D30A37" transform="translate(0,0)"/>
<path d="" fill="#D30A37" transform="translate(0,0)"/>
<path d="" fill="#D30A37" transform="translate(0,0)"/>
<path d="" fill="#D30A37" transform="translate(0,0)"/>
<path d="" fill="#D30A37" transform="translate(0,0)"/>
<path d="" fill="#D30A37" transform="translate(0,0)"/>
<path d="" fill="#D30A37" transform="translate(0,0)"/>
<path d="" fill="#D30A37" transform="translate(0,0)"/>
<path d="" fill="#D30A37" transform="translate(0,0)"/>
<path d="" fill="#D30A37" transform="translate(0,0)"/>
<path d="" fill="#D30A37" transform="translate(0,0)"/>
<path d="" fill="#D30A37" transform="translate(0,0)"/>
<path d="" fill="#D30A37" transform="translate(0,0)"/>
<path d="" fill="#D30A37" transform="translate(0,0)"/>
<path d="" fill="#D30A37" transform="translate(0,0)"/>
<path d="" fill="#D30A37" transform="translate(0,0)"/>
<path d="" fill="#D30A37" transform="translate(0,0)"/>
<path d="" fill="#D30A37" transform="translate(0,0)"/>
<path d="" fill="#D30A37" transform="translate(0,0)"/>
<path d="" fill="#D30A37" transform="translate(0,0)"/>
<path d="" fill="#D30A37" transform="translate(0,0)"/>
<path d="" fill="#D30A37" transform="translate(0,0)"/>
<path d="" fill="#D30A37" transform="translate(0,0)"/>
<path d="" fill="#D30A37" transform="translate(0,0)"/>
<path d="" fill="#D30A37" transform="translate(0,0)"/>
<path d="" fill="#D30A37" transform="translate(0,0)"/>
<path d="" fill="#D30A37" transform="translate(0,0)"/>
<path d="" fill="#D30A37" transform="translate(0,0)"/>
<path d="" fill="#D30A37" transform="translate(0,0)"/>
<path d="" fill="#D30A37" transform="translate(0,0)"/>
<path d="" fill="#D30A37" transform="translate(0,0)"/>
<path d="" fill="#D30A37" transform="translate(0,0)"/>
<path d="" fill="#D30A37" transform="translate(0,0)"/>
<path d="" fill="#D30A37" transform="translate(0,0)"/>
<path d="" fill="#D30A37" transform="translate(0,0)"/>
</svg>
