<svg xmlns="http://www.w3.org/2000/svg" viewBox="0 0 512 512">
  <circle cx="256" cy="256" r="256" fill="#6da544"/>
  <polygon fill="#ffda44" points="256,100.174 467.478,256 256,411.826 44.522,256"/>
  <circle cx="256" cy="256" r="89.043" fill="#338af3"/>
  <g fill="#0052b4">
    <path d="M211.478,250.435c15.484,0,30.427,2.355,44.493,6.725c0.623,0.192,1.24,0.398,1.847,0.621 c0.933,0.344,1.852,0.715,2.76,1.108c0.86,0.372,1.708,0.772,2.545,1.191c0.981,0.491,1.945,1.016,2.89,1.571 c0.806,0.473,1.6,0.966,2.38,1.485c0.967,0.643,1.917,1.317,2.847,2.017c0.729,0.549,1.442,1.123,2.142,1.717 c0.967,0.821,1.917,1.674,2.847,2.565c0.646,0.619,1.277,1.262,1.892,1.928c0.967,1.046,1.917,2.127,2.847,3.244 c0.563,0.677,1.111,1.371,1.644,2.084c0.967,1.295,1.917,2.626,2.847,3.994c0.476,0.701,0.938,1.417,1.386,2.147 c0.967,1.576,1.917,3.191,2.847,4.847c0.394,0.702,0.776,1.417,1.144,2.143c0.967,1.909,1.917,3.863,2.847,5.863 c0.311,0.669,0.611,1.349,0.902,2.038c0.967,2.295,1.917,4.644,2.847,7.05c0.227,0.588,0.446,1.184,0.659,1.786 c0.967,2.738,1.917,5.538,2.847,8.402c0.143,0.441,0.281,0.888,0.416,1.338c0.967,3.235,1.917,6.538,2.847,9.912 c0.059,0.214,0.115,0.431,0.173,0.648c0.967,3.784,1.917,7.644,2.847,11.583c-0.93,3.939-1.88,7.799-2.847,11.583 c-0.058,0.217-0.114,0.434-0.173,0.648c-0.93,3.374-1.88,6.677-2.847,9.912c-0.135,0.45-0.273,0.897-0.416,1.338 c-0.93,2.864-1.88,5.664-2.847,8.402c-0.213,0.602-0.432,1.198-0.659,1.786c-0.93,2.406-1.88,4.755-2.847,7.05 c-0.291,0.689-0.591,1.369-0.902,2.038c-0.93,2-1.88,3.954-2.847,5.863c-0.368,0.726-0.75,1.441-1.144,2.143 c-0.93,1.656-1.88,3.271-2.847,4.847c-0.448,0.73-0.91,1.446-1.386,2.147c-0.93,1.368-1.88,2.699-2.847,3.994 c-0.533,0.713-1.081,1.407-1.644,2.084c-0.93,1.117-1.88,2.198-2.847,3.244c-0.615,0.666-1.246,1.309-1.892,1.928 c-0.93,0.891-1.88,1.744-2.847,2.565c-0.7,0.594-1.413,1.168-2.142,1.717c-0.93,0.7-1.88,1.374-2.847,2.017 c-0.78,0.519-1.574,1.012-2.38,1.485c-0.945,0.555-1.909,1.08-2.89,1.571c-0.837,0.419-1.685,0.819-2.545,1.191 c-0.908,0.393-1.827,0.764-2.76,1.108c-0.607,0.223-1.224,0.429-1.847,0.621c-14.066,4.37-29.009,6.725-44.493,6.725 c-15.484,0-30.427-2.355-44.493-6.725c-0.623-0.192-1.24-0.398-1.847-0.621c-0.933-0.344-1.852-0.715-2.76-1.108 c-0.86-0.372-1.708-0.772-2.545-1.191c-0.981-0.491-1.945-1.016-2.89-1.571c-0.806-0.473-1.6-0.966-2.38-1.485 c-0.967-0.643-1.917-1.317-2.847-2.017c-0.729-0.549-1.442-1.123-2.142-1.717c-0.967-0.821-1.917-1.674-2.847-2.565 c-0.646-0.619-1.277-1.262-1.892-1.928c-0.967-1.046-1.917-2.127-2.847-3.244c-0.563-0.677-1.111-1.371-1.644-2.084 c-0.967-1.295-1.917-2.626-2.847-3.994c-0.476-0.701-0.938-1.417-1.386-2.147c-0.967-1.576-1.917-3.191-2.847-4.847 c-0.394-0.702-0.776-1.417-1.144-2.143c-0.967-1.909-1.917-3.863-2.847-5.863c-0.311-0.669-0.611-1.349-0.902-2.038 c-0.967-2.295-1.917-4.644-2.847-7.05c-0.227-0.588-0.446-1.184-0.659-1.786c-0.967-2.738-1.917-5.538-2.847-8.402 c-0.143-0.441-0.281-0.888-0.416-1.338c-0.967-3.235-1.917-6.538-2.847-9.912c-0.059-0.214-0.115-0.431-0.173-0.648 c-0.967-3.784-1.917-7.644-2.847-11.583c0.93-3.939,1.88-7.799,2.847-11.583c0.058-0.217,0.114-0.434,0.173-0.648 c0.93-3.374,1.88-6.677,2.847-9.912c0.135-0.45,0.273-0.897,0.416-1.338c0.93-2.864,1.88-5.664,2.847-8.402 c0.213-0.602,0.432-1.198,0.659-1.786c0.93-2.406,1.88-4.755,2.847-7.05c0.291-0.689,0.591-1.369,0.902-2.038 c0.93-2,1.88-3.954,2.847-5.863c0.368-0.726,0.75-1.441,1.144-2.143c0.93-1.656,1.88-3.271,2.847-4.847 c0.448-0.73,0.91-1.446,1.386-2.147c0.93-1.368,1.88-2.699,2.847-3.994c0.533-0.713,1.081-1.407,1.644-2.084 c0.93-1.117,1.88-2.198,2.847-3.244c0.615-0.666,1.246-1.309,1.892-1.928c0.93-0.891,1.88-1.744,2.847-2.565 c0.7-0.594,1.413-1.168,2.142-1.717c0.93-0.7,1.88-1.374,2.847-2.017c0.78-0.519,1.574-1.012,2.38-1.485 c0.945-0.555,1.909-1.08,2.89-1.571c0.837-0.419,1.685-0.819,2.545-1.191c0.908-0.393,1.827-0.764,2.76-1.108 c0.607-0.223,1.224-0.429,1.847-0.621C181.051,252.79,196.994,250.435,211.478,250.435z"/>
  </g>
</svg>