<svg xmlns="http://www.w3.org/2000/svg" viewBox="0 0 512 512">
  <circle cx="256" cy="256" r="256" fill="#d80027"/>
  <g fill="#ffda44">
    <polygon points="256,133.565 269.405,172.03 309.873,172.03 278.234,194.637 291.639,233.102 256,210.495 220.361,233.102 233.766,194.637 202.127,172.03 242.595,172.03"/>
    <polygon points="309.873,90.087 316.619,103.226 331.826,103.226 319.477,112.936 326.223,126.075 309.873,116.365 293.523,126.075 300.269,112.936 287.92,103.226 303.127,103.226"/>
    <polygon points="341.565,133.565 348.311,146.704 363.518,146.704 351.169,156.414 357.915,169.553 341.565,159.843 325.215,169.553 331.961,156.414 319.612,146.704 334.819,146.704"/>
    <polygon points="341.565,194.637 348.311,207.776 363.518,207.776 351.169,217.486 357.915,230.625 341.565,220.915 325.215,230.625 331.961,217.486 319.612,207.776 334.819,207.776"/>
    <polygon points="309.873,238.159 316.619,251.298 331.826,251.298 319.477,261.008 326.223,274.147 309.873,264.437 293.523,274.147 300.269,261.008 287.92,251.298 303.127,251.298"/>
  </g>
</svg>